<svg xmlns="http://www.w3.org/2000/svg" height="100" width="122.788" viewBox="105 75 150 130">><defs><clipPath id="a" clipPathUnits="userSpaceOnUse"><path d="M0 216.879h266.303V0H0z"/></clipPath><clipPath id="c" clipPathUnits="userSpaceOnUse"><path d="M0 216.879h266.303V0H0z"/></clipPath><linearGradient id="b" spreadMethod="pad" gradientTransform="scale(110.36755 -110.36755) rotate(-45 -.505 -1.444)" gradientUnits="userSpaceOnUse" y2="0" x2="1" y1="0" x1="0"><stop offset="0" stop-color="#0ff"/><stop offset=".234" stop-color="#0071bc"/><stop offset=".423" stop-color="#ab10d2"/><stop offset=".567" stop-color="#af4593"/><stop offset=".641" stop-color="#ff00c0"/><stop offset=".784" stop-color="#ff00c0"/><stop offset=".789" stop-color="#ff00c0"/><stop offset="1" stop-color="#ff3f5a"/></linearGradient></defs><path d="M169.171 183.836h-1.674v-11.183l1.674.756z" fill="#42005b"/><path d="M169.171 183.836h-1.674v-11.183l1.674.756z" fill="none" stroke="#42005b" stroke-width=".3333325" stroke-miterlimit="10"/><g clip-path="url(#a)" transform="matrix(1.33333 0 0 -1.33333 0 289.172)"><path d="M129.211 83.188h6.633c.362 0 .65.124.863.372.212.249.32.64.32 1.179 0 .538-.105.933-.315 1.185-.209.252-.502.378-.88.378h-6.62zm-1.255-4.186v8.433h7.938c.747 0 1.331-.223 1.754-.667.423-.446.634-1.122.634-2.03 0-.906-.216-1.58-.646-2.021-.43-.441-1.028-.661-1.792-.661h-6.633v-3.054z" fill="#42005b"/><path d="M129.211 83.188h6.633c.362 0 .65.124.863.372.212.249.32.64.32 1.179 0 .538-.105.933-.315 1.185-.209.252-.502.378-.88.378h-6.62zm-1.255-4.186v8.433h7.938c.747 0 1.331-.223 1.754-.667.423-.446.634-1.122.634-2.03 0-.906-.216-1.58-.646-2.021-.43-.441-1.028-.661-1.792-.661h-6.633v-3.054z" fill="none" stroke="#42005b" stroke-width=".25" stroke-miterlimit="10"/><path d="M139.059 87.45h8.664v-1.132l-3.615-.026v-7.3h-1.256v7.3l-3.793.026z" fill="#42005b"/><path d="M139.059 87.45h8.664v-1.132l-3.615-.026v-7.3h-1.256v7.3l-3.793.026z" fill="none" stroke="#42005b" stroke-width=".25" stroke-miterlimit="10"/><path d="M126.876 88.176l-1.251.61v1.687l1.251-.61z" fill="#42005b"/><path d="M126.876 88.176l-1.251.61v1.687l1.251-.61z" fill="none" stroke="#42005b" stroke-width=".25" stroke-miterlimit="10"/><path d="M187.867 155.56a.484.484 0 01.126.356c0 .234-.087.385-.262.452-.176.066-.513.1-1.012.1-.61 0-.988-.044-1.134-.13-.12-.072-.18-.264-.18-.575h-.496c0 .503.125.827.375.973.214.123.686.185 1.416.185.69 0 1.15-.057 1.381-.17.272-.134.41-.413.41-.839 0-.195-.027-.34-.079-.438a.65.65 0 00-.248-.249c.217-.07.326-.286.326-.643 0-.464-.122-.766-.365-.906-.217-.123-.686-.185-1.406-.185-.808 0-1.32.07-1.538.208-.217.138-.325.48-.325 1.023h.496c0-.372.065-.596.197-.67.131-.076.521-.114 1.17-.114.58 0 .938.036 1.072.107.135.072.202.26.202.565a.406.406 0 01-.099.284c-.067.073-.165.11-.295.11h-1.377v.448h1.377c.107 0 .197.035.268.107" fill="#42005b"/><path d="M187.867 155.56a.484.484 0 01.126.356c0 .234-.087.385-.262.452-.176.066-.513.1-1.012.1-.61 0-.988-.044-1.134-.13-.12-.072-.18-.264-.18-.575h-.496c0 .503.125.827.375.973.214.123.686.185 1.416.185.69 0 1.15-.057 1.381-.17.272-.134.41-.413.41-.839 0-.195-.027-.34-.079-.438a.65.65 0 00-.248-.249c.217-.07.326-.286.326-.643 0-.464-.122-.766-.365-.906-.217-.123-.686-.185-1.406-.185-.808 0-1.32.07-1.538.208-.217.138-.325.48-.325 1.023h.496c0-.372.065-.596.197-.67.131-.076.521-.114 1.17-.114.58 0 .938.036 1.072.107.135.072.202.26.202.565a.406.406 0 01-.099.284c-.067.073-.165.11-.295.11h-1.377v.448h1.377c.107 0 .197.035.268.107z" fill="none" stroke="#42005b" stroke-width=".25" stroke-miterlimit="10"/><path d="M189.823 153.997h2.29c.27 0 .45.082.543.246.093.164.139.488.139.973 0 .481-.047.804-.141.97-.094.165-.274.248-.54.248h-2.291zm-.496 2.885h2.792c.412 0 .692-.077.842-.229.22-.228.33-.707.33-1.437 0-.728-.11-1.205-.33-1.433-.15-.156-.43-.234-.842-.234h-2.792z" fill="#42005b"/><path d="M189.823 153.997h2.29c.27 0 .45.082.543.246.093.164.139.488.139.973 0 .481-.047.804-.141.97-.094.165-.274.248-.54.248h-2.291zm-.496 2.885h2.792c.412 0 .692-.077.842-.229.22-.228.33-.707.33-1.437 0-.728-.11-1.205-.33-1.433-.15-.156-.43-.234-.842-.234h-2.792z" fill="none" stroke="#42005b" stroke-width=".25" stroke-miterlimit="10"/><path d="M77.223 75.345h5.255v-.651H80.23v-4.19h-.749v4.19h-2.257z" fill="#42005b"/><path d="M77.223 75.345h5.255v-.651H80.23v-4.19h-.749v4.19h-2.257z" fill="none" stroke="#42005b" stroke-width=".499" stroke-miterlimit="10"/><path d="M83.999 75.348h4.814v-.65h-4.064v-1.413h3.924v-.651h-3.924v-1.476h4.064v-.651h-4.814z" fill="#42005b"/><path d="M83.999 75.348h4.814v-.65h-4.064v-1.413h3.924v-.651h-3.924v-1.476h4.064v-.651h-4.814z" fill="none" stroke="#42005b" stroke-width=".499" stroke-miterlimit="10"/><path d="M95.864 75.348H96.9l-2.58-2.425 2.58-2.416h-.986l-2.153 2.049-2.154-2.049h-.992l2.58 2.421-2.58 2.42h1.044l2.102-2.043z" fill="#42005b"/><path d="M95.864 75.348H96.9l-2.58-2.425 2.58-2.416h-.986l-2.153 2.049-2.154-2.049h-.992l2.58 2.421-2.58 2.42h1.044l2.102-2.043z" fill="none" stroke="#42005b" stroke-width=".499" stroke-miterlimit="10"/><path d="M98.357 75.348h.75v-2.056h4.33v2.056h.748v-4.841h-.749v2.134h-4.329v-2.134h-.75z" fill="#42005b"/><path d="M98.357 75.348h.75v-2.056h4.33v2.056h.748v-4.841h-.749v2.134h-4.329v-2.134h-.75z" fill="none" stroke="#42005b" stroke-width=".499" stroke-miterlimit="10"/><path d="M108.669 71.087c1.156 0 1.837.082 2.043.247.207.166.309.694.309 1.586 0 .897-.102 1.428-.305 1.594-.203.165-.886.247-2.047.247s-1.844-.082-2.047-.247c-.203-.166-.305-.697-.305-1.594 0-.887.102-1.415.309-1.582.205-.168.886-.251 2.043-.251m0-.65c-1.044 0-1.774.064-2.19.193-.416.13-.681.376-.794.739-.08.25-.118.766-.118 1.549 0 .795.037 1.31.11 1.546.113.369.38.618.802.749.42.132 1.15.199 2.19.199 1.043 0 1.772-.065 2.186-.195.414-.13.68-.378.798-.745.079-.25.117-.768.117-1.554 0-.792-.036-1.306-.11-1.541-.113-.368-.378-.617-.794-.747-.416-.13-1.148-.193-2.197-.193" fill="#42005b"/><path d="M108.669 71.087c1.156 0 1.837.082 2.043.247.207.166.309.694.309 1.586 0 .897-.102 1.428-.305 1.594-.203.165-.886.247-2.047.247s-1.844-.082-2.047-.247c-.203-.166-.305-.697-.305-1.594 0-.887.102-1.415.309-1.582.205-.168.886-.251 2.043-.251zm0-.65c-1.044 0-1.774.064-2.19.193-.416.13-.681.376-.794.739-.08.25-.118.766-.118 1.549 0 .795.037 1.31.11 1.546.113.369.38.618.802.749.42.132 1.15.199 2.19.199 1.043 0 1.772-.065 2.186-.195.414-.13.68-.378.798-.745.079-.25.117-.768.117-1.554 0-.792-.036-1.306-.11-1.541-.113-.368-.378-.617-.794-.747-.416-.13-1.148-.193-2.197-.193z" fill="none" stroke="#42005b" stroke-width=".499" stroke-miterlimit="10"/><path d="M113.012 71.158h.293c.173 0 .305.136.398.41.112.33.17.879.17 1.646v2.134h5.13v-4.841h-.75v4.19h-3.632V73.46c0-.448-.014-.84-.044-1.175-.044-.523-.123-.93-.236-1.217-.143-.373-.343-.56-.598-.56h-.73z" fill="#42005b"/><path d="M113.012 71.158h.293c.173 0 .305.136.398.41.112.33.17.879.17 1.646v2.134h5.13v-4.841h-.75v4.19h-3.632V73.46c0-.448-.014-.84-.044-1.175-.044-.523-.123-.93-.236-1.217-.143-.373-.343-.56-.598-.56h-.73z" fill="none" stroke="#42005b" stroke-width=".499" stroke-miterlimit="10"/><path d="M123.648 71.087c1.156 0 1.837.082 2.043.247.207.166.309.694.309 1.586 0 .897-.102 1.428-.305 1.594-.203.165-.886.247-2.047.247s-1.844-.082-2.047-.247c-.203-.166-.305-.697-.305-1.594 0-.887.102-1.415.309-1.582.206-.168.886-.251 2.043-.251m0-.65c-1.044 0-1.774.064-2.19.193-.416.13-.681.376-.794.739-.08.25-.117.766-.117 1.549 0 .795.036 1.31.11 1.546.112.369.38.618.8.749.422.132 1.152.199 2.19.199 1.045 0 1.773-.065 2.187-.195.414-.13.68-.378.798-.745.079-.25.117-.768.117-1.554 0-.792-.036-1.306-.11-1.541-.113-.368-.377-.617-.793-.747-.416-.13-1.15-.193-2.198-.193" fill="#42005b"/><path d="M123.648 71.087c1.156 0 1.837.082 2.043.247.207.166.309.694.309 1.586 0 .897-.102 1.428-.305 1.594-.203.165-.886.247-2.047.247s-1.844-.082-2.047-.247c-.203-.166-.305-.697-.305-1.594 0-.887.102-1.415.309-1.582.206-.168.886-.251 2.043-.251zm0-.65c-1.044 0-1.774.064-2.19.193-.416.13-.681.376-.794.739-.08.25-.117.766-.117 1.549 0 .795.036 1.31.11 1.546.112.369.38.618.8.749.422.132 1.152.199 2.19.199 1.045 0 1.773-.065 2.187-.195.414-.13.68-.378.798-.745.079-.25.117-.768.117-1.554 0-.792-.036-1.306-.11-1.541-.113-.368-.377-.617-.793-.747-.416-.13-1.15-.193-2.198-.193z" fill="none" stroke="#42005b" stroke-width=".499" stroke-miterlimit="10"/><path d="M128.08 75.348h4.6v-.65h-3.858v-4.191h-.742z" fill="#42005b"/><path d="M128.08 75.348h4.6v-.65h-3.858v-4.191h-.742z" fill="none" stroke="#42005b" stroke-width=".499" stroke-miterlimit="10"/><path d="M139.942 70.507h-.75v4.206l-4.277-4.206h-1.132v4.84h.749v-4.246l4.315 4.247h1.095z" fill="#42005b"/><path d="M139.942 70.507h-.75v4.206l-4.277-4.206h-1.132v4.84h.749v-4.246l4.315 4.247h1.095z" fill="none" stroke="#42005b" stroke-width=".499" stroke-miterlimit="10"/><path d="M147.594 70.507h-.75v4.206l-4.277-4.206h-1.132v4.84h.749v-4.246l4.315 4.247h1.095z" fill="#42005b"/><path d="M147.594 70.507h-.75v4.206l-4.277-4.206h-1.132v4.84h.749v-4.246l4.315 4.247h1.095z" fill="none" stroke="#42005b" stroke-width=".499" stroke-miterlimit="10"/><path d="M153.002 75.348h5.821v-4.841h-.749v4.191h-4.322v-4.191h-.75z" fill="#42005b"/><path d="M153.002 75.348h5.821v-4.841h-.749v4.191h-4.322v-4.191h-.75z" fill="none" stroke="#42005b" stroke-width=".499" stroke-miterlimit="10"/><path d="M160.257 75.348h4.814v-.65h-4.064v-1.413h3.924v-.651h-3.924v-1.476h4.064v-.651h-4.814z" fill="#42005b"/><path d="M160.257 75.348h4.814v-.65h-4.064v-1.413h3.924v-.651h-3.924v-1.476h4.064v-.651h-4.814z" fill="none" stroke="#42005b" stroke-width=".499" stroke-miterlimit="10"/><path d="M167.172 75.348v-1.694a.68.68 0 01.283-.556c.19-.149.452-.224.791-.224h3.028v2.474h.75v-4.841h-.75v1.717h-3.028c-.579 0-1.032.139-1.36.418-.309.26-.463.598-.463 1.013v1.693z" fill="#42005b"/><path d="M167.172 75.348v-1.694a.68.68 0 01.283-.556c.19-.149.452-.224.791-.224h3.028v2.474h.75v-4.841h-.75v1.717h-3.028c-.579 0-1.032.139-1.36.418-.309.26-.463.598-.463 1.013v1.693z" fill="none" stroke="#42005b" stroke-width=".499" stroke-miterlimit="10"/><path d="M178.329 72.228l-1.368 2.537h-.191l-1.366-2.537zm-.882 3.117l2.646-4.842h-.846l-.594 1.074h-3.587l-.59-1.074h-.844l2.647 4.842z" fill="#42005b"/><path d="M178.329 72.228l-1.368 2.537h-.191l-1.366-2.537zm-.882 3.117l2.646-4.842h-.846l-.594 1.074h-3.587l-.59-1.074h-.844l2.647 4.842z" fill="none" stroke="#42005b" stroke-width=".499" stroke-miterlimit="10"/><path d="M180.092 75.345h5.255v-.651h-2.249v-4.19h-.749v4.19h-2.257z" fill="#42005b"/><path d="M180.092 75.345h5.255v-.651h-2.249v-4.19h-.749v4.19h-2.257z" fill="none" stroke="#42005b" stroke-width=".499" stroke-miterlimit="10"/><path d="M193.045 70.507h-.75v4.206l-4.277-4.206h-1.132v4.84h.749v-4.246l4.315 4.247h1.095z" fill="#42005b"/><path d="M193.045 70.507h-.75v4.206l-4.277-4.206h-1.132v4.84h.749v-4.246l4.315 4.247h1.095z" fill="none" stroke="#42005b" stroke-width=".499" stroke-miterlimit="10"/></g><path d="M157.039 157.03l-.009.032-21.369-7.34-22.554 7.373-.028-.065-.009.032-35.281-12.118-.566-.174v-39.52l36.114-13.989.055.024 21.888 8.504 22.018-8.528.054.024 35.939 13.964v40.016l-.017-.006-36.205 11.836zm1.266-2.385l32.082-10.475-32.082-12.097zm-43.961 0l18.276-5.968-10.87-3.733-.567-.174v-10.117l-6.839-2.58zm24.528-5.972l17.146 5.888v-22.356l-6.688 2.507v10.553l-.016-.006zm-57.942-4.801l31.127 10.689v-22.356zm43.96 0l10.942 3.757 10.593-3.459-11.131-4.197zm-1.419-1.646l8.926-3.345-8.926-3.366zm-43.961 0l32.5-12.18.001-11.666-32.501-11.043zm79.185-23.991l.02 11.812 32.289 12.176v-34.705zm-20.502 20.651l8.851 3.337v-6.654zm-14.722-23.548v17.996l11.826 4.46 11.747-4.402v-18.046l-11.66-3.961zm25.859 17.197l6.64-2.489.002-11.666-6.642-2.257zm-34.595-14.3l.019 11.812 6.429 2.425v-16.376zm42.553 13.495h.106l-.053-.02zm-43.961 0h.105l-.052-.02zm24.74-30.858l11.263 4.377v8.726l6.643 2.256.002-22.326zm-56.687 4.952l30.631 10.407.004-22.326zm77.312 10.272l30.674-10.177-30.711-11.894zm-43.962 0l6.453-2.142v-8.704l11.247-4.356-17.737-6.869zm23.854-5.772l8.46 2.874v-5.68zm-15.113 2.872l8.725-2.895-8.725-2.964zm1.868-7.372l10.055 3.416 10.012-3.321-10.178-3.942z" fill="url(#b)" transform="matrix(1.33333 0 0 -1.33333 0 289.172)"/><g clip-path="url(#c)" transform="matrix(1.33333 0 0 -1.33333 0 289.172)"><path d="M77.464 146.817l2.23.712v6.04l-2.23-.71z" fill="#42005b"/><path d="M77.464 146.817l2.23.712v6.04l-2.23-.71z" fill="none" stroke="#42005b" stroke-width=".5" stroke-miterlimit="10"/><path d="M77.477 144.578V106.69l2.26.862-.06 37.765z" fill="#42005b"/><path d="M77.477 144.578V106.69l2.26.862-.06 37.765z" fill="none" stroke="#42005b" stroke-width=".5" stroke-miterlimit="10"/><path d="M149.105 143.033l-.005.16v1.708l-36.274-13.382-.635-.215-.007-1.974.002-.362-.002-.258-.007-36.731 1.155-.451 1.363.528-.126 37.777 32.552 12.47.191-26.625-25.879-8.987-.002-1.28 1.207-.46 26.332 8.907.133.055v.27z" fill="#42005b"/><path d="M149.105 143.033l-.005.16v1.708l-36.274-13.382-.635-.215-.007-1.974.002-.362-.002-.258-.007-36.731 1.155-.451 1.363.528-.126 37.777 32.552 12.47.191-26.625-25.879-8.987-.002-1.28 1.207-.46 26.332 8.907.133.055v.27z" fill="none" stroke="#42005b" stroke-width=".5" stroke-miterlimit="10"/><path d="M193.045 144.91l-34.076-12.856-.007-1.598v-.212l15.9 5.994v-35.736l2.263.862-.006 35.71 15.92 5.912z" fill="#42005b"/><path d="M193.045 144.91l-34.076-12.856-.007-1.598v-.212l15.9 5.994v-35.736l2.263.862-.006 35.71 15.92 5.912z" fill="none" stroke="#42005b" stroke-width=".5" stroke-miterlimit="10"/></g></svg>