<?xml version="1.0" standalone="no"?>
<!DOCTYPE svg PUBLIC "-//W3C//DTD SVG 20010904//EN"
 "http://www.w3.org/TR/2001/REC-SVG-20010904/DTD/svg10.dtd">
<svg version="1.0" xmlns="http://www.w3.org/2000/svg"
 width="600.000000pt" height="600.000000pt" viewBox="0 0 600.000000 600.000000"
 preserveAspectRatio="xMidYMid meet">
<metadata>
Created by potrace 1.11, written by Peter Selinger 2001-2013
</metadata>
<g transform="translate(0.000000,600.000000) scale(0.100000,-0.100000)"
fill="#000000" stroke="none">
<path d="M0 3000 l0 -3000 3000 0 3000 0 0 3000 0 3000 -3000 0 -3000 0 0
-3000z m4250 2486 c226 -48 369 -225 436 -538 21 -101 30 -288 22 -460 -6
-130 -44 -398 -68 -488 -18 -63 -17 -64 83 -95 360 -111 683 -288 868 -475
148 -149 209 -274 209 -426 0 -252 -194 -489 -575 -702 -132 -74 -244 -123
-436 -192 -79 -29 -145 -53 -146 -54 -1 -1 9 -56 22 -122 52 -258 71 -586 44
-781 -66 -489 -320 -713 -720 -637 -264 50 -587 235 -893 512 l-89 80 -106
-92 c-328 -286 -618 -445 -910 -500 -209 -40 -374 4 -503 135 -214 217 -274
687 -157 1241 37 174 42 152 -43 178 -528 162 -952 463 -1070 759 -18 47 -22
76 -23 176 l0 120 49 100 c43 88 61 111 155 206 196 197 459 343 843 469 l126
42 -15 61 c-55 238 -76 413 -76 637 0 202 15 318 59 450 52 156 148 283 260
342 303 162 802 -19 1322 -480 l83 -74 72 69 c231 219 540 417 770 495 167 56
289 69 407 44z"/>
<path d="M4030 5246 c-167 -37 -369 -139 -570 -288 -69 -51 -288 -240 -289
-248 0 -3 29 -39 65 -80 120 -136 280 -338 363 -456 l42 -62 82 -7 c115 -9
383 -50 533 -80 70 -15 130 -22 134 -18 7 8 37 149 62 293 8 48 13 163 13 315
0 231 -1 244 -28 339 -71 257 -188 340 -407 292z"/>
<path d="M1760 5241 c-80 -25 -127 -71 -170 -166 -85 -187 -99 -499 -39 -835
17 -94 50 -240 55 -240 3 0 60 11 127 25 149 30 423 71 534 81 l82 7 78 106
c89 122 235 301 335 413 l69 77 -88 77 c-337 295 -666 465 -893 463 -36 0 -76
-4 -90 -8z"/>
<path d="M2929 4458 c-35 -39 -108 -126 -161 -192 l-97 -121 165 -3 c91 -1
238 -1 326 0 l161 3 -102 129 c-97 121 -207 248 -221 254 -4 1 -35 -30 -71
-70z"/>
<path d="M2577 3891 c-105 -7 -90 6 -218 -198 -170 -271 -379 -656 -379 -698
0 -45 253 -498 429 -767 l76 -116 84 -7 c113 -9 697 -9 833 0 l107 7 69 107
c129 198 242 394 364 629 l80 152 -75 143 c-40 78 -113 210 -161 292 -98 170
-86 149 -188 309 -43 67 -79 125 -81 130 -2 5 -52 13 -113 17 -124 9 -693 9
-827 0z m634 -438 c162 -81 255 -210 281 -392 11 -71 10 -88 -10 -167 -38
-153 -134 -275 -265 -338 -176 -83 -348 -70 -508 39 -92 63 -150 140 -190 251
-30 85 -30 236 1 319 59 155 177 269 335 321 26 8 81 12 156 11 114 -2 117 -3
200 -44z"/>
<path d="M2100 3843 c-187 -29 -239 -38 -324 -54 -55 -11 -102 -21 -104 -24
-7 -7 86 -271 150 -427 l24 -56 39 76 c22 42 51 97 66 122 15 25 63 107 107
182 45 76 89 149 98 163 16 24 16 25 -7 24 -13 -1 -35 -3 -49 -6z"/>
<path d="M3832 3828 c39 -60 173 -287 237 -403 40 -71 75 -132 77 -134 6 -6
47 92 103 249 29 80 56 155 62 168 22 56 19 58 -128 86 -165 30 -321 56 -347
56 -17 0 -17 -2 -4 -22z"/>
<path d="M1300 3666 c-52 -18 -117 -41 -145 -50 -97 -34 -352 -165 -435 -225
-207 -148 -299 -280 -287 -411 20 -221 380 -495 865 -659 68 -22 125 -41 127
-41 2 0 13 30 26 68 46 141 121 337 184 485 36 84 65 160 65 168 0 9 -12 40
-26 70 -39 79 -167 408 -205 527 -28 85 -37 102 -54 101 -11 0 -63 -15 -115
-33z"/>
<path d="M4552 3673 c-6 -16 -18 -48 -26 -73 -40 -122 -101 -281 -166 -432
l-71 -167 31 -68 c74 -158 180 -428 245 -620 6 -18 30 -16 110 11 417 140 756
360 853 556 35 69 43 154 20 207 -91 211 -416 429 -861 577 -59 20 -111 36
-116 36 -5 0 -13 -12 -19 -27z"/>
<path d="M1802 2608 c-63 -162 -132 -356 -132 -372 0 -19 11 -22 173 -50 192
-33 317 -49 324 -43 3 3 -26 57 -65 119 -80 130 -175 295 -221 386 -17 34 -33
62 -35 62 -3 0 -22 -46 -44 -102z"/>
<path d="M4110 2648 c-50 -95 -183 -328 -240 -419 -28 -45 -49 -83 -48 -84 7
-7 442 64 500 81 15 5 14 13 -13 92 -48 140 -150 392 -159 392 -4 0 -22 -28
-40 -62z"/>
<path d="M4335 1984 c-123 -27 -344 -64 -475 -79 -74 -8 -154 -18 -177 -21
-39 -5 -45 -10 -114 -107 -67 -94 -244 -325 -258 -337 -26 -22 -132 -152 -129
-159 5 -13 133 -128 213 -192 181 -144 372 -255 535 -310 81 -28 110 -33 195
-33 86 -1 106 2 142 22 84 44 151 162 189 327 21 95 30 385 15 526 -13 120
-57 360 -69 370 -4 3 -34 0 -67 -7z"/>
<path d="M1596 1972 c-7 -12 -43 -190 -62 -312 -25 -160 -23 -457 4 -576 38
-168 104 -278 189 -316 205 -91 602 73 994 409 60 52 109 99 109 104 0 5 -46
63 -103 127 -119 135 -192 226 -297 368 l-75 102 -120 11 c-158 16 -376 47
-499 71 -108 22 -132 24 -140 12z"/>
<path d="M2701 1815 c44 -59 194 -239 254 -303 l51 -55 85 99 c68 79 169 207
231 290 5 7 -89 10 -321 10 l-329 -1 29 -40z"/>
</g>
</svg>
